<?xml version="1.0" encoding="utf-8"?>
<!-- Generator: Adobe Illustrator 23.1.1, SVG Export Plug-In . SVG Version: 6.00 Build 0)  -->
<svg version="1.1" id="Layer_1" xmlns="http://www.w3.org/2000/svg" xmlns:xlink="http://www.w3.org/1999/xlink" x="0px" y="0px"
	 viewBox="0 0 2400 2219" style="enable-background:new 0 0 2400 2219;" xml:space="preserve">
<style type="text/css">
	.st0{fill:#6DC8BF;}
	.st1{fill:#FFFFFF;}
	.st2{fill:none;stroke:#1F305B;stroke-width:21.333;stroke-linecap:round;stroke-linejoin:round;stroke-miterlimit:10;}
	.st3{fill:#1F305B;}
	
		.st4{clip-path:url(#SVGID_2_);fill:none;stroke:#1F305B;stroke-width:21.333;stroke-linecap:round;stroke-linejoin:round;stroke-miterlimit:10;}
	
		.st5{clip-path:url(#SVGID_4_);fill:none;stroke:#1F305B;stroke-width:21.333;stroke-linecap:round;stroke-linejoin:round;stroke-miterlimit:10;}
	.st6{fill:none;}
</style>
<g>
	<rect x="244.39" y="1444.27" class="st0" width="1911.22" height="353.09"/>
	<g>
		<path class="st1" d="M563.71,1628.27c5.3,6.94,7.96,15.48,7.96,25.62c0,14.35-5.58,25.39-16.73,33.11
			c-11.16,7.72-27.42,11.58-48.79,11.58h-84.71v-163.8h80.03c19.97,0,35.29,3.82,45.98,11.47c10.68,7.65,16.03,18.02,16.03,31.12
			c0,7.96-1.91,15.06-5.73,21.29c-3.82,6.24-9.17,11.16-16.03,14.74C551.07,1616.38,558.4,1621.33,563.71,1628.27z M459.11,1563.34
			v38.61h37.67c9.36,0,16.46-1.64,21.29-4.91c4.83-3.28,7.25-8.11,7.25-14.51c0-6.39-2.42-11.19-7.25-14.39
			c-4.84-3.2-11.93-4.8-21.29-4.8H459.11z M525.91,1665.13c5.07-3.28,7.6-8.34,7.6-15.21c0-13.57-10.06-20.36-30.19-20.36h-44.23
			v40.48h44.23C513.31,1670.04,520.84,1668.4,525.91,1665.13z"/>
		<path class="st1" d="M617.46,1692.15c-10.53-5.54-18.76-13.22-24.69-23.05c-5.93-9.83-8.89-20.98-8.89-33.46
			c0-12.48,2.96-23.63,8.89-33.46c5.93-9.83,14.16-17.51,24.69-23.05c10.53-5.54,22.42-8.31,35.68-8.31
			c13.26,0,25.12,2.77,35.57,8.31c10.45,5.54,18.64,13.22,24.57,23.05c5.93,9.83,8.89,20.98,8.89,33.46
			c0,12.48-2.97,23.63-8.89,33.46c-5.93,9.83-14.12,17.51-24.57,23.05c-10.45,5.54-22.31,8.31-35.57,8.31
			C639.88,1700.46,627.98,1697.69,617.46,1692.15z M676.19,1661.03c6-6.32,9.01-14.78,9.01-25.39c0-10.61-3-19.07-9.01-25.39
			c-6.01-6.32-13.69-9.48-23.05-9.48s-17.08,3.16-23.17,9.48s-9.13,14.78-9.13,25.39c0,10.61,3.04,19.07,9.13,25.39
			c6.08,6.32,13.81,9.48,23.17,9.48S670.18,1667.35,676.19,1661.03z"/>
		<path class="st1" d="M765.72,1692.15c-10.53-5.54-18.76-13.22-24.69-23.05c-5.93-9.83-8.89-20.98-8.89-33.46
			c0-12.48,2.96-23.63,8.89-33.46c5.93-9.83,14.16-17.51,24.69-23.05c10.53-5.54,22.42-8.31,35.68-8.31
			c13.26,0,25.12,2.77,35.57,8.31c10.45,5.54,18.64,13.22,24.57,23.05c5.93,9.83,8.89,20.98,8.89,33.46
			c0,12.48-2.97,23.63-8.89,33.46c-5.93,9.83-14.12,17.51-24.57,23.05c-10.45,5.54-22.31,8.31-35.57,8.31
			C788.14,1700.46,776.25,1697.69,765.72,1692.15z M824.45,1661.03c6-6.32,9.01-14.78,9.01-25.39c0-10.61-3-19.07-9.01-25.39
			c-6.01-6.32-13.69-9.48-23.05-9.48s-17.08,3.16-23.17,9.48s-9.13,14.78-9.13,25.39c0,10.61,3.04,19.07,9.13,25.39
			c6.08,6.32,13.81,9.48,23.17,9.48S818.44,1667.35,824.45,1661.03z"/>
		<path class="st1" d="M942.55,1649.21L925,1666.53v32.06h-36.5v-173.63H925v98.28l53.35-50.54h43.52l-52.42,53.35l57.1,72.54
			h-44.23L942.55,1649.21z"/>
		<path class="st1" d="M1202.52,1584.75c10.45,9.28,15.68,23.28,15.68,42v71.84h-34.16v-15.68c-6.87,11.7-19.66,17.55-38.38,17.55
			c-9.67,0-18.06-1.64-25.16-4.91c-7.1-3.28-12.52-7.8-16.26-13.57c-3.74-5.77-5.62-12.32-5.62-19.66c0-11.7,4.41-20.9,13.22-27.61
			c8.81-6.71,22.42-10.06,40.83-10.06h29.02c0-7.96-2.42-14.08-7.25-18.37c-4.84-4.29-12.09-6.43-21.76-6.43
			c-6.71,0-13.3,1.05-19.77,3.16c-6.48,2.11-11.97,4.95-16.5,8.54l-13.1-25.51c6.86-4.83,15.09-8.58,24.69-11.23
			c9.59-2.65,19.46-3.98,29.6-3.98C1177.09,1570.83,1192.07,1575.47,1202.52,1584.75z M1171.4,1671.56
			c4.83-2.88,8.27-7.14,10.3-12.75v-12.87h-25.04c-14.98,0-22.46,4.91-22.46,14.74c0,4.68,1.83,8.39,5.5,11.12
			c3.66,2.73,8.7,4.09,15.09,4.09C1161.02,1675.89,1166.56,1674.45,1171.4,1671.56z"/>
		<path class="st1" d="M1326.77,1696.6c-9.99-2.57-17.94-5.81-23.87-9.71l12.17-26.21c5.62,3.59,12.4,6.52,20.36,8.78
			c7.96,2.26,15.75,3.39,23.4,3.39c15.44,0,23.17-3.82,23.17-11.47c0-3.59-2.11-6.16-6.32-7.72c-4.21-1.56-10.69-2.88-19.42-3.98
			c-10.3-1.56-18.8-3.35-25.51-5.38c-6.71-2.03-12.52-5.62-17.43-10.76c-4.91-5.15-7.37-12.48-7.37-22c0-7.96,2.3-15.01,6.9-21.18
			c4.6-6.16,11.31-10.96,20.12-14.39c8.81-3.43,19.22-5.15,31.24-5.15c8.89,0,17.74,0.98,26.56,2.92
			c8.81,1.95,16.11,4.64,21.88,8.07l-12.17,25.97c-11.08-6.24-23.17-9.36-36.27-9.36c-7.8,0-13.65,1.09-17.55,3.28
			c-3.9,2.19-5.85,4.99-5.85,8.42c0,3.9,2.11,6.63,6.32,8.19c4.21,1.56,10.92,3.04,20.12,4.45c10.3,1.72,18.72,3.55,25.27,5.5
			c6.55,1.95,12.25,5.5,17.08,10.65c4.83,5.15,7.25,12.33,7.25,21.53c0,7.8-2.34,14.74-7.02,20.83
			c-4.68,6.08-11.51,10.8-20.48,14.16c-8.97,3.35-19.62,5.03-31.94,5.03C1346.97,1700.46,1336.75,1699.17,1326.77,1696.6z"/>
		<path class="st1" d="M1517.45,1692.5c-3.59,2.65-8,4.64-13.22,5.97c-5.23,1.32-10.73,1.99-16.5,1.99
			c-14.98,0-26.56-3.82-34.75-11.47c-8.19-7.64-12.29-18.87-12.29-33.7v-51.71h-19.42v-28.08h19.42v-30.65h36.5v30.65h31.36v28.08
			h-31.36v51.25c0,5.3,1.36,9.4,4.09,12.29c2.73,2.89,6.59,4.33,11.58,4.33c5.77,0,10.68-1.56,14.74-4.68L1517.45,1692.5z"/>
		<path class="st1" d="M1626.73,1584.75c10.45,9.28,15.68,23.28,15.68,42v71.84h-34.16v-15.68c-6.87,11.7-19.66,17.55-38.38,17.55
			c-9.67,0-18.06-1.64-25.16-4.91c-7.1-3.28-12.52-7.8-16.26-13.57c-3.74-5.77-5.62-12.32-5.62-19.66c0-11.7,4.41-20.9,13.22-27.61
			c8.81-6.71,22.42-10.06,40.83-10.06h29.02c0-7.96-2.42-14.08-7.25-18.37c-4.84-4.29-12.09-6.43-21.76-6.43
			c-6.71,0-13.3,1.05-19.77,3.16c-6.48,2.11-11.97,4.95-16.5,8.54l-13.1-25.51c6.86-4.83,15.09-8.58,24.69-11.23
			c9.59-2.65,19.46-3.98,29.6-3.98C1601.3,1570.83,1616.28,1575.47,1626.73,1584.75z M1595.61,1671.56
			c4.83-2.88,8.27-7.14,10.3-12.75v-12.87h-25.04c-14.98,0-22.46,4.91-22.46,14.74c0,4.68,1.83,8.39,5.5,11.12
			c3.66,2.73,8.7,4.09,15.09,4.09C1585.23,1675.89,1590.77,1674.45,1595.61,1671.56z"/>
		<path class="st1" d="M1782.5,1584.87c9.59,9.36,14.39,23.25,14.39,41.65v72.07h-36.5v-66.46c0-9.98-2.19-17.43-6.55-22.35
			c-4.37-4.91-10.69-7.37-18.95-7.37c-9.21,0-16.54,2.85-22,8.54c-5.46,5.7-8.19,14.16-8.19,25.39v62.24h-36.5V1572.7h34.87v14.74
			c4.83-5.3,10.84-9.4,18.02-12.28c7.17-2.88,15.05-4.33,23.63-4.33C1760.31,1570.83,1772.91,1575.5,1782.5,1584.87z"/>
		<path class="st1" d="M1951.61,1524.96v173.63h-34.87v-14.51c-9.05,10.92-22.15,16.38-39.31,16.38c-11.86,0-22.58-2.65-32.18-7.96
			c-9.59-5.3-17.12-12.87-22.58-22.7c-5.46-9.83-8.19-21.21-8.19-34.16c0-12.95,2.73-24.34,8.19-34.16
			c5.46-9.83,12.99-17.39,22.58-22.7c9.59-5.3,20.32-7.96,32.18-7.96c16.07,0,28.62,5.07,37.67,15.21v-61.07H1951.61z
			 M1906.68,1661.03c6.08-6.32,9.13-14.78,9.13-25.39c0-10.61-3.04-19.07-9.13-25.39s-13.73-9.48-22.93-9.48
			c-9.36,0-17.08,3.16-23.17,9.48s-9.13,14.78-9.13,25.39c0,10.61,3.04,19.07,9.13,25.39c6.08,6.32,13.81,9.48,23.17,9.48
			C1892.95,1670.51,1900.6,1667.35,1906.68,1661.03z"/>
	</g>
	<g>
		<g>
			<defs>
				<path id="SVGID_3_" d="M1601.49,1075.92l-110.96-299.6c-4.53-13.59-17.25-22.76-31.58-22.76h-112.72
					c-30.13,55.39-63.06,109.57-90.06,152.16c-26.15,41.24-86.22,41.24-112.36,0c-27-42.6-59.93-96.77-90.06-152.16H941.02
					c-14.33,0-27.05,9.17-31.58,22.76l-110.96,299.6c-7.19,21.56,8.86,43.82,31.58,43.82h739.86
					C1592.64,1119.74,1608.68,1097.48,1601.49,1075.92z"/>
			</defs>
			<clipPath id="SVGID_2_">
				<use xlink:href="#SVGID_3_"  style="overflow:visible;"/>
			</clipPath>
			<path class="st4" d="M1569.91,1119.74H830.05c-22.72,0-38.77-22.26-31.58-43.82l110.97-299.6c4.53-13.59,17.25-22.76,31.58-22.76
				h517.93c14.33,0,27.05,9.17,31.58,22.76l110.97,299.6C1608.68,1097.48,1592.64,1119.74,1569.91,1119.74z"/>
			
				<use xlink:href="#SVGID_3_"  style="overflow:visible;fill:none;stroke:#1F305B;stroke-width:21.333;stroke-linecap:round;stroke-linejoin:round;stroke-miterlimit:10;"/>
		</g>
		<g>
			<path class="st2" d="M1433.01,525.2c0,87.57-107.89,271.74-176.84,380.51c-26.15,41.24-86.22,41.24-112.36,0
				c-68.96-108.77-176.84-292.94-176.84-380.51c0-128.7,104.33-233.03,233.03-233.03S1433.01,396.51,1433.01,525.2z"/>
			<circle class="st2" cx="1199.98" cy="525.2" r="116.51"/>
		</g>
	</g>
</g>
<rect class="st6" width="2400" height="2219"/>
</svg>
