<?xml version="1.0" encoding="utf-8"?>
<!-- Generator: Adobe Illustrator 23.1.1, SVG Export Plug-In . SVG Version: 6.00 Build 0)  -->
<svg version="1.1" id="Layer_1" xmlns="http://www.w3.org/2000/svg" xmlns:xlink="http://www.w3.org/1999/xlink" x="0px" y="0px"
	 viewBox="0 0 2400 2219" style="enable-background:new 0 0 2400 2219;" xml:space="preserve">
<style type="text/css">
	.st0{fill:#6DC8BF;}
	.st1{fill:#FFFFFF;}
	.st2{fill:none;stroke:#1F305B;stroke-width:21.333;stroke-linecap:round;stroke-linejoin:round;stroke-miterlimit:10;}
	.st3{fill:#1F305B;}
	
		.st4{clip-path:url(#SVGID_2_);fill:none;stroke:#1F305B;stroke-width:21.333;stroke-linecap:round;stroke-linejoin:round;stroke-miterlimit:10;}
	
		.st5{clip-path:url(#SVGID_4_);fill:none;stroke:#1F305B;stroke-width:21.333;stroke-linecap:round;stroke-linejoin:round;stroke-miterlimit:10;}
	.st6{fill:none;}
</style>
<g>
	<rect x="275.88" y="1444.27" class="st0" width="1848.24" height="353.09"/>
	<g>
		<path class="st1" d="M578.78,1668.17v30.42H451.95v-163.8h123.79v30.42h-86.11v35.57h76.05v29.48h-76.05v37.91H578.78z"/>
		<path class="st1" d="M683.89,1698.59l-27.61-38.61l-28.55,38.61h-39.78l48.44-63.41l-46.8-62.48h40.95l26.68,36.74l27.38-36.74
			h38.84l-46.8,61.54l48.67,64.35H683.89z"/>
		<path class="st1" d="M850.85,1584.87c9.59,9.36,14.39,23.25,14.39,41.65v72.07h-36.5v-66.46c0-9.98-2.19-17.43-6.55-22.35
			c-4.37-4.91-10.69-7.37-18.95-7.37c-9.21,0-16.54,2.85-22,8.54c-5.46,5.7-8.19,14.16-8.19,25.39v62.24h-36.5v-173.63h36.5v60.84
			c4.83-4.83,10.68-8.54,17.55-11.12c6.86-2.57,14.35-3.86,22.46-3.86C828.65,1570.83,841.25,1575.5,850.85,1584.87z"/>
		<path class="st1" d="M892.1,1549.3c-4.21-3.9-6.32-8.73-6.32-14.51c0-5.77,2.11-10.61,6.32-14.51c4.21-3.9,9.67-5.85,16.38-5.85
			c6.71,0,12.17,1.87,16.38,5.62s6.32,8.42,6.32,14.04c0,6.08-2.11,11.12-6.32,15.09c-4.21,3.98-9.67,5.97-16.38,5.97
			C901.77,1555.15,896.31,1553.2,892.1,1549.3z M890.23,1572.7h36.5v125.89h-36.5V1572.7z"/>
		<path class="st1" d="M1060.04,1578.9c9.59,5.38,17.12,12.95,22.58,22.7c5.46,9.75,8.19,21.1,8.19,34.05
			c0,12.95-2.73,24.3-8.19,34.05c-5.46,9.75-12.99,17.32-22.58,22.7c-9.59,5.38-20.24,8.07-31.94,8.07
			c-17.32,0-30.5-5.46-39.55-16.38v14.51h-34.87v-173.63h36.5v61.07c9.2-10.14,21.84-15.21,37.91-15.21
			C1039.8,1570.83,1050.45,1573.52,1060.04,1578.9z M1044.83,1661.03c6-6.32,9.01-14.78,9.01-25.39c0-10.61-3.01-19.07-9.01-25.39
			c-6.01-6.32-13.69-9.48-23.05-9.48c-9.36,0-17.04,3.16-23.05,9.48c-6.01,6.32-9.01,14.78-9.01,25.39c0,10.61,3,19.07,9.01,25.39
			c6,6.32,13.69,9.48,23.05,9.48C1031.14,1670.51,1038.82,1667.35,1044.83,1661.03z"/>
		<path class="st1" d="M1110.68,1549.3c-4.21-3.9-6.32-8.73-6.32-14.51c0-5.77,2.11-10.61,6.32-14.51c4.21-3.9,9.67-5.85,16.38-5.85
			c6.71,0,12.17,1.87,16.38,5.62s6.32,8.42,6.32,14.04c0,6.08-2.11,11.12-6.32,15.09c-4.21,3.98-9.67,5.97-16.38,5.97
			C1120.35,1555.15,1114.89,1553.2,1110.68,1549.3z M1108.8,1572.7h36.5v125.89h-36.5V1572.7z"/>
		<path class="st1" d="M1254.47,1692.5c-3.59,2.65-8,4.64-13.22,5.97c-5.23,1.32-10.73,1.99-16.5,1.99
			c-14.98,0-26.56-3.82-34.75-11.47c-8.19-7.64-12.29-18.87-12.29-33.7v-51.71h-19.42v-28.08h19.42v-30.65h36.5v30.65h31.36v28.08
			h-31.36v51.25c0,5.3,1.36,9.4,4.09,12.29c2.73,2.89,6.59,4.33,11.58,4.33c5.77,0,10.68-1.56,14.74-4.68L1254.47,1692.5z"/>
		<path class="st1" d="M1291.32,1692.15c-10.53-5.54-18.76-13.22-24.69-23.05c-5.93-9.83-8.89-20.98-8.89-33.46
			c0-12.48,2.96-23.63,8.89-33.46c5.93-9.83,14.16-17.51,24.69-23.05c10.53-5.54,22.42-8.31,35.68-8.31
			c13.26,0,25.12,2.77,35.57,8.31c10.45,5.54,18.64,13.22,24.57,23.05c5.93,9.83,8.89,20.98,8.89,33.46
			c0,12.48-2.97,23.63-8.89,33.46c-5.93,9.83-14.12,17.51-24.57,23.05c-10.45,5.54-22.31,8.31-35.57,8.31
			C1313.75,1700.46,1301.85,1697.69,1291.32,1692.15z M1350.06,1661.03c6-6.32,9.01-14.78,9.01-25.39c0-10.61-3-19.07-9.01-25.39
			c-6.01-6.32-13.69-9.48-23.05-9.48s-17.08,3.16-23.17,9.48s-9.13,14.78-9.13,25.39c0,10.61,3.04,19.07,9.13,25.39
			c6.08,6.32,13.81,9.48,23.17,9.48S1344.05,1667.35,1350.06,1661.03z"/>
		<path class="st1" d="M1466.63,1575.5c7.41-3.12,15.95-4.68,25.62-4.68v33.7c-4.06-0.31-6.79-0.47-8.19-0.47
			c-10.45,0-18.64,2.92-24.57,8.78c-5.93,5.85-8.89,14.62-8.89,26.33v59.44h-36.5V1572.7h34.87v16.61
			C1453.33,1583.23,1459.22,1578.63,1466.63,1575.5z"/>
		<path class="st1" d="M1689.28,1663.49h-76.05l-14.51,35.1h-38.84l73.01-163.8h37.44l73.24,163.8h-39.78L1689.28,1663.49z
			 M1677.35,1634.71l-25.97-62.71l-25.97,62.71H1677.35z"/>
		<path class="st1" d="M1747.5,1618.09h66.22v29.25h-66.22V1618.09z"/>
		<path class="st1" d="M1964.88,1667.7v30.89h-143.21v-24.57l89.86-108.34h-87.98v-30.89h137.83v24.57l-89.62,108.34H1964.88z"/>
	</g>
	<g>
		<g>
			<path class="st3" d="M1017.9,607.25h27.56l116.38,248.84h-31.01l-22.97-48.24H955.88l-22.97,48.24h-31.39L1017.9,607.25z
				 M1096.76,782.97l-45.56-96.47c-8.42-17.99-17.99-41.73-19.52-44.79c-1.53,3.06-10.72,26.42-19.52,44.79l-45.56,96.47H1096.76z"
				/>
		</g>
		<g>
			<g>
				<defs>
					<path id="SVGID_1_" d="M1215.92,1119.74H783.16V520.53h66.58v499.34h266.31C1171.21,1019.87,1215.92,1064.58,1215.92,1119.74z
						 M1582.1,520.53v499.34h-266.31c-55.16,0-99.87,44.71-99.87,99.87h432.76V520.53H1582.1z"/>
				</defs>
				<clipPath id="SVGID_2_">
					<use xlink:href="#SVGID_1_"  style="overflow:visible;"/>
				</clipPath>
				<rect x="783.16" y="520.53" class="st4" width="865.52" height="599.21"/>
				
					<use xlink:href="#SVGID_1_"  style="overflow:visible;fill:none;stroke:#1F305B;stroke-width:21.333;stroke-linecap:round;stroke-linejoin:round;stroke-miterlimit:10;"/>
			</g>
			<g>
				<path class="st2" d="M1215.92,553.82v565.92c0-55.16-44.71-99.87-99.87-99.87H849.74V453.95h266.31
					C1171.21,453.95,1215.92,498.66,1215.92,553.82z"/>
			</g>
			<g>
				<path class="st2" d="M1215.92,553.82v565.92c0-55.16,44.71-99.87,99.87-99.87h266.31V453.95h-266.31
					C1260.63,453.95,1215.92,498.66,1215.92,553.82z"/>
			</g>
		</g>
		<g>
			<path class="st3" d="M1292.21,832.73l146.24-179.16c10.34-12.63,17.23-18.76,17.23-18.76h-155.43v-26.8h193.71v23.35
				L1350.78,806.7c-11.1,13.78-20.29,22.59-20.29,22.59h165.76v26.8h-204.05V832.73z"/>
		</g>
	</g>
</g>
<rect class="st6" width="2400" height="2219"/>
</svg>
