<?xml version="1.0" encoding="utf-8"?>
<!-- Generator: Adobe Illustrator 23.1.1, SVG Export Plug-In . SVG Version: 6.00 Build 0)  -->
<svg version="1.1" id="Layer_1" xmlns="http://www.w3.org/2000/svg" xmlns:xlink="http://www.w3.org/1999/xlink" x="0px" y="0px"
	 viewBox="0 0 2400 2219" style="enable-background:new 0 0 2400 2219;" xml:space="preserve">
<style type="text/css">
	.st0{fill:#6DC8BF;}
	.st1{fill:#FFFFFF;}
	.st2{fill:none;stroke:#1F305B;stroke-width:21.333;stroke-linecap:round;stroke-linejoin:round;stroke-miterlimit:10;}
	.st3{fill:#1F305B;}
	
		.st4{clip-path:url(#SVGID_2_);fill:none;stroke:#1F305B;stroke-width:21.333;stroke-linecap:round;stroke-linejoin:round;stroke-miterlimit:10;}
	
		.st5{clip-path:url(#SVGID_4_);fill:none;stroke:#1F305B;stroke-width:21.333;stroke-linecap:round;stroke-linejoin:round;stroke-miterlimit:10;}
	.st6{fill:none;}
</style>
<g>
	<rect x="602.34" y="1444.27" class="st0" width="1195.33" height="353.09"/>
	<g>
		<path class="st1" d="M831.93,1565.68h-52.42v-30.89h142.74v30.89h-52.42v132.91h-37.91V1565.68z"/>
		<path class="st1" d="M938.49,1549.3c-4.21-3.9-6.32-8.73-6.32-14.51c0-5.77,2.11-10.61,6.32-14.51c4.21-3.9,9.67-5.85,16.38-5.85
			c6.71,0,12.17,1.87,16.38,5.62c4.21,3.74,6.32,8.42,6.32,14.04c0,6.08-2.11,11.12-6.32,15.09c-4.21,3.98-9.67,5.97-16.38,5.97
			C948.17,1555.15,942.71,1553.2,938.49,1549.3z M936.62,1572.7h36.5v125.89h-36.5V1572.7z"/>
		<path class="st1" d="M1024.68,1692.15c-10.69-5.54-19.03-13.22-25.04-23.05c-6.01-9.83-9.01-20.98-9.01-33.46
			c0-12.48,3-23.63,9.01-33.46c6-9.83,14.35-17.51,25.04-23.05c10.68-5.54,22.73-8.31,36.15-8.31c13.26,0,24.84,2.77,34.75,8.31
			c9.91,5.54,17.12,13.46,21.65,23.75l-28.31,15.21c-6.55-11.54-15.99-17.32-28.31-17.32c-9.52,0-17.4,3.12-23.63,9.36
			c-6.24,6.24-9.36,14.74-9.36,25.51c0,10.76,3.12,19.27,9.36,25.51c6.24,6.24,14.12,9.36,23.63,9.36
			c12.48,0,21.92-5.77,28.31-17.32l28.31,15.44c-4.53,9.99-11.74,17.78-21.65,23.4c-9.91,5.62-21.49,8.42-34.75,8.42
			C1047.41,1700.46,1035.36,1697.69,1024.68,1692.15z"/>
		<path class="st1" d="M1186.88,1649.21l-17.55,17.32v32.06h-36.5v-173.63h36.5v98.28l53.35-50.54h43.52l-52.42,53.35l57.1,72.54
			h-44.23L1186.88,1649.21z"/>
		<path class="st1" d="M1396.82,1645.94h-95.24c1.71,7.8,5.77,13.96,12.17,18.49c6.4,4.53,14.35,6.79,23.87,6.79
			c6.55,0,12.36-0.97,17.43-2.92c5.07-1.95,9.79-5.03,14.16-9.24l19.42,21.06c-11.86,13.57-29.17,20.36-51.95,20.36
			c-14.2,0-26.76-2.77-37.67-8.31c-10.92-5.54-19.35-13.22-25.27-23.05c-5.93-9.83-8.89-20.98-8.89-33.46
			c0-12.32,2.92-23.44,8.77-33.34c5.85-9.9,13.88-17.63,24.1-23.17c10.21-5.54,21.64-8.31,34.28-8.31c12.32,0,23.48,2.65,33.46,7.96
			c9.98,5.3,17.82,12.91,23.52,22.81c5.69,9.91,8.54,21.41,8.54,34.52C1397.53,1636.58,1397.29,1639.85,1396.82,1645.94z
			 M1311.41,1605.46c-5.62,4.68-9.05,11.08-10.3,19.19h62.01c-1.25-7.96-4.68-14.31-10.3-19.07c-5.62-4.76-12.48-7.14-20.59-7.14
			C1323.97,1598.44,1317.03,1600.78,1311.41,1605.46z"/>
		<path class="st1" d="M1498.07,1692.5c-3.59,2.65-8,4.64-13.22,5.97c-5.23,1.32-10.73,1.99-16.5,1.99
			c-14.98,0-26.56-3.82-34.75-11.47c-8.19-7.64-12.29-18.87-12.29-33.7v-51.71h-19.42v-28.08h19.42v-30.65h36.5v30.65h31.36v28.08
			h-31.36v51.25c0,5.3,1.36,9.4,4.09,12.29c2.73,2.89,6.59,4.33,11.58,4.33c5.77,0,10.68-1.56,14.74-4.68L1498.07,1692.5z"/>
		<path class="st1" d="M1528.84,1696.6c-9.99-2.57-17.94-5.81-23.87-9.71l12.17-26.21c5.62,3.59,12.4,6.52,20.36,8.78
			c7.96,2.26,15.75,3.39,23.4,3.39c15.44,0,23.17-3.82,23.17-11.47c0-3.59-2.11-6.16-6.32-7.72c-4.21-1.56-10.69-2.88-19.42-3.98
			c-10.3-1.56-18.8-3.35-25.51-5.38c-6.71-2.03-12.52-5.62-17.43-10.76c-4.91-5.15-7.37-12.48-7.37-22c0-7.96,2.3-15.01,6.9-21.18
			c4.6-6.16,11.31-10.96,20.12-14.39c8.81-3.43,19.22-5.15,31.24-5.15c8.89,0,17.74,0.98,26.56,2.92
			c8.81,1.95,16.11,4.64,21.88,8.07l-12.17,25.97c-11.08-6.24-23.17-9.36-36.27-9.36c-7.8,0-13.65,1.09-17.55,3.28
			c-3.9,2.19-5.85,4.99-5.85,8.42c0,3.9,2.11,6.63,6.32,8.19c4.21,1.56,10.92,3.04,20.12,4.45c10.3,1.72,18.72,3.55,25.27,5.5
			c6.55,1.95,12.25,5.5,17.08,10.65c4.83,5.15,7.25,12.33,7.25,21.53c0,7.8-2.34,14.74-7.02,20.83
			c-4.68,6.08-11.51,10.8-20.48,14.16c-8.97,3.35-19.62,5.03-31.94,5.03C1549.05,1700.46,1538.83,1699.17,1528.84,1696.6z"/>
	</g>
	<g>
		<g>
			<path class="st2" d="M1504.49,783.07l122.72-70.85l-49.93-86.49c-46.46-0.05-91.62-24.14-116.52-67.26s-23.18-94.29,0.01-134.54
				l-49.93-86.49L805.41,686.97l0,0.01h699.07V783.07z"/>
			<g>
				<path class="st2" d="M1283.33,450.32c-0.28,0-0.57-0.15-0.72-0.41l-8.32-14.42c-0.23-0.4-0.09-0.9,0.31-1.14
					c0.4-0.23,0.91-0.09,1.14,0.31l8.32,14.42c0.23,0.4,0.09,0.9-0.31,1.14C1283.61,450.28,1283.47,450.32,1283.33,450.32z"/>
				<path class="st2" d="M1383.2,623.29c-0.28,0-0.57-0.15-0.72-0.41l-16.64-28.83c-0.23-0.4-0.09-0.9,0.31-1.14
					c0.41-0.21,0.91-0.09,1.14,0.31l16.64,28.83c0.23,0.4,0.09,0.9-0.31,1.14C1383.48,623.26,1383.33,623.29,1383.2,623.29z"/>
				<path class="st2" d="M1333.26,536.8c-0.28,0-0.57-0.14-0.72-0.41l-16.64-28.83c-0.23-0.4-0.09-0.9,0.31-1.14
					c0.4-0.23,0.9-0.09,1.14,0.31l16.64,28.83c0.23,0.4,0.09,0.9-0.31,1.14C1333.55,536.77,1333.4,536.8,1333.26,536.8z"/>
			</g>
			<polygon class="st2" points="1230.43,556.9 1005.14,686.98 1305.53,686.98 			"/>
		</g>
		<g>
			<path class="st2" d="M1504.49,786.84v-99.87H805.41v99.87c40.21,23.27,67.28,66.72,67.28,116.51c0,49.8-27.07,93.25-67.28,116.51
				v99.87h699.08v-99.87c-40.21-23.27-67.28-66.72-67.28-116.51C1437.21,853.56,1464.28,810.11,1504.49,786.84z"/>
			<g>
				<path class="st2" d="M1338.04,721.09c-0.46,0-0.83-0.37-0.83-0.83v-16.64c0-0.46,0.36-0.83,0.83-0.83
					c0.46,0,0.83,0.37,0.83,0.83v16.64C1338.87,720.73,1338.5,721.09,1338.04,721.09z"/>
				<path class="st2" d="M1338.04,1020.7c-0.46,0-0.83-0.37-0.83-0.83v-33.29c0-0.46,0.36-0.83,0.83-0.83
					c0.46,0,0.83,0.37,0.83,0.83v33.29C1338.87,1020.33,1338.5,1020.7,1338.04,1020.7z M1338.04,920.83c-0.46,0-0.83-0.37-0.83-0.83
					v-33.29c0-0.46,0.36-0.83,0.83-0.83c0.46,0,0.83,0.37,0.83,0.83V920C1338.87,920.46,1338.5,920.83,1338.04,920.83z
					 M1338.04,820.96c-0.46,0-0.83-0.37-0.83-0.83v-33.29c0-0.46,0.36-0.83,0.83-0.83c0.46,0,0.83,0.37,0.83,0.83v33.29
					C1338.87,820.59,1338.5,820.96,1338.04,820.96z"/>
				<path class="st2" d="M1338.04,1103.92c-0.46,0-0.83-0.37-0.83-0.83v-16.64c0-0.46,0.36-0.83,0.83-0.83
					c0.46,0,0.83,0.37,0.83,0.83v16.64C1338.87,1103.55,1338.5,1103.92,1338.04,1103.92z"/>
			</g>
			<rect x="972.21" y="786.84" class="st2" width="266.31" height="233.03"/>
		</g>
	</g>
</g>
<rect class="st6" width="2400" height="2219"/>
</svg>
